<svg width="266" height="223" viewBox="0 0 266 223" fill="none" xmlns="http://www.w3.org/2000/svg">
<path fill-rule="evenodd" clip-rule="evenodd" d="M171.743 0.458374C115.628 5.12934 40.7391 6.39238 31.3526 20.3607C29.8089 27.3474 101.641 51.6798 100.769 63.6348C99.2163 84.9331 -11.9983 111.261 1.06691 110.201C42.3056 106.859 136.03 78.0074 134.784 63.1512C133.619 49.2452 72.9809 28.4943 69.6404 24.5808C62.43 16.1283 167.695 19.1803 167.693 19.1853" fill="#26C6DA"/>
<path fill-rule="evenodd" clip-rule="evenodd" d="M180.623 222.812H131.8L96.552 119.974C139.968 101.501 171.676 74.7166 173.986 24.0803C166.75 23.7327 161.966 19.3739 161.978 11.7331C161.978 3.93451 164.961 -0.0284448 175.142 0.000153683H178.065V119.851C164.553 119.851 157.441 131.219 157.441 142.547C157.441 153.874 164.093 168.534 178.065 168.534H183.214C196.523 168.534 203.755 155.728 203.759 143.252C203.762 131.403 197.243 119.851 183.214 119.851V0.000153683H186.535C204.08 0.000153683 203.945 23.7802 186.535 23.7802C189.606 74.0195 228.563 109.941 265.087 119.975L229.888 222.813L180.623 222.812Z" fill="#006699"/>
<path d="M167.748 197.168C167.748 200.049 167.194 202.49 166.086 204.493C164.978 206.496 163.478 208.017 161.586 209.057C159.703 210.097 157.589 210.617 155.245 210.617C152.893 210.617 150.775 210.093 148.891 209.044C147.008 207.996 145.512 206.475 144.404 204.48C143.305 202.478 142.755 200.04 142.755 197.168C142.755 194.287 143.305 191.845 144.404 189.843C145.512 187.84 147.008 186.318 148.891 185.279C150.775 184.239 152.893 183.719 155.245 183.719C157.589 183.719 159.703 184.239 161.586 185.279C163.478 186.318 164.978 187.84 166.086 189.843C167.194 191.845 167.748 194.287 167.748 197.168ZM161.279 197.168C161.279 195.463 161.036 194.023 160.551 192.847C160.073 191.671 159.383 190.78 158.48 190.175C157.585 189.57 156.507 189.267 155.245 189.267C153.992 189.267 152.914 189.57 152.011 190.175C151.107 190.78 150.413 191.671 149.927 192.847C149.45 194.023 149.211 195.463 149.211 197.168C149.211 198.872 149.45 200.313 149.927 201.489C150.413 202.665 151.107 203.556 152.011 204.161C152.914 204.766 153.992 205.068 155.245 205.068C156.507 205.068 157.585 204.766 158.48 204.161C159.383 203.556 160.073 202.665 160.551 201.489C161.036 200.313 161.279 198.872 161.279 197.168ZM168.416 184.077H175.486L181.021 195.033H181.251L186.787 184.077H193.856L184.281 201.514V210.259H177.991V201.514L168.416 184.077ZM218.792 184.077V210.259H213.422L203.003 195.148H202.837V210.259H196.509V184.077H201.955L212.259 199.162H212.476V184.077H218.792Z" fill="white"/>
</svg>
